<?xml version="1.0" encoding="UTF-8"?>
<svg xmlns="http://www.w3.org/2000/svg" version="1.1" viewBox="0 0 308 256">
  <g id="Agglo">
    <polygon points="162.4 54.7 161.7 54.5 161.5 54.2 160.4 53.5 159.6 53.4 158.7 53.5 157.2 54.1 157 54.4 155.3 55.6 153.8 56.1 137.7 60.7 135.9 60.2 135.3 60.4 133.6 59.9 133.2 60.1 132.5 60 131.7 60.2 131.2 60.2 130.8 60.4 129.5 60.6 129.4 60.4 129.2 60.3 126.6 60.3 126.6 61.9 126.1 63.5 126.5 64.2 127.7 65.6 128.7 68.3 128.8 68.9 129.4 70.8 129.5 72.9 129.8 74.5 131.1 74.6 131.5 74 132.2 74 132.3 73.8 134.4 74.9 136.2 76.5 138.6 78.1 139.5 77.8 150.6 78.8 151.3 78.6 151.4 77.4 151.7 76.6 152.9 77 153.6 73.5 155.9 74.2 156.6 74.3 160.8 75.9 162.5 71.7 164.1 66.4 164.7 63.2 164.9 55.8 164.5 54.3 162.4 54.7" fill="none" isolation="isolate" opacity=".8" stroke="#1d1d1b" stroke-linecap="round" stroke-linejoin="round" stroke-width="1.5"/>
    <polygon points="184.5 89.5 182.9 88.7 181.3 88.5 180.4 91.3 180.4 93.4 180.9 93.5 180.6 96.4 179.7 98 179 98.7 178 101.3 177.6 101.2 176.7 101.5 175.9 101.6 175 101.3 174.7 102.7 175.1 103.9 175 105.7 174.5 107.6 175.8 107.5 176.8 107.7 177 108.4 177.5 108.1 178.2 108.1 178.5 107.9 179.8 106.7 180.4 107.1 181.3 105.4 181.3 104.9 183.6 101.9 184.1 100.6 185.7 95.3 186.5 94.1 187.6 93.1 187.3 92.1 188.1 91.3 188.7 91.1 188.7 90.7 188.9 90.3 188.9 89.9 188.5 89.8 188.5 89.6 188.2 89.4 187.7 88.8 185.4 89.5 184.5 89.5" fill="none" isolation="isolate" opacity=".8" stroke="#1d1d1b" stroke-linecap="round" stroke-linejoin="round" stroke-width="1.5"/>
    <polygon points="186.6 115.2 185.5 114.5 184 114.2 183.4 113.8 183.2 114.6 182.8 115.4 181.9 115.2 181.7 115.5 181.4 115.4 180.9 116.1 180.6 116.4 180.5 116.9 180.4 117.7 180.1 118.1 180 119 180.3 120 180.3 121.9 179.7 127.2 179.7 128.1 181.2 133.2 181.4 134.5 182.4 134.7 183.7 135.3 184.4 134.7 184.7 133.8 185.3 133.8 186.2 134.1 186.2 132.4 186.5 132 186.3 131.1 188.4 131.1 189.1 131.4 189.7 131.5 190.1 130.8 190.6 130.4 191.1 129.2 191.5 129.3 191.8 129.4 191.9 129.2 191.7 129 191.9 128.8 191.9 128.4 192.1 128.4 192.2 127.3 192.7 127.3 192.9 125.9 193.4 125.9 193 125.3 192.9 124.9 194.2 122.6 194 122 194.2 120.6 193.8 120.7 193.8 120.5 194.8 119.1 195 118.4 192.4 117 190.2 116.5 186.6 115.2" fill="none" isolation="isolate" opacity=".8" stroke="#1d1d1b" stroke-linecap="round" stroke-linejoin="round" stroke-width="1.5"/>
    <polygon points="178.7 47 178.5 46 174.5 45.6 175 47.5 173.8 47.2 174 52.2 174.3 53.6 174 54.6 174.4 60.3 173 61 173.5 62.5 173.6 63.3 174.1 63.4 174.2 65.5 173.9 66.4 173.1 66.3 173.1 66.5 172.3 66.7 171.8 67.7 171.9 68 171.7 68.1 170.8 68.1 170.1 72.4 169.4 73.9 171.5 74.8 172.4 75.4 172 76.3 172 76.6 171.7 76.9 170.2 75.7 170 76.7 170.1 77.3 168.6 76.9 167.9 79.7 168.4 79.9 168.1 81.2 167.3 81 166.9 81.8 166.3 83.9 168.1 84 168 84.7 172 86 172.2 85.7 172.8 85.7 173.6 85.9 173.6 85.8 174.7 86.2 174.8 86.7 175.3 86.9 175.2 87.1 175.6 87.4 175.8 87.4 176 87 176.3 87 177.8 87.6 179.7 89.2 180.4 88.2 182.9 88.7 184.5 89.5 185.4 89.5 187.7 88.8 188.2 89.4 188.5 89.6 188.5 89.8 189.3 90 189.5 90.2 189.8 89.5 190.3 89.4 190.9 89.1 192 88.2 192.3 87.4 192.5 85.3 193.4 85.1 193.7 85.2 193.4 85.6 193.8 86.1 193.9 86.4 195.1 85.9 195.4 86.3 195.9 86.6 195.8 87 196.3 87.1 196.1 87.4 196.8 87.7 197.6 85.7 197.1 85.6 197.5 84.8 197.3 83.1 197.7 82.5 197.3 82.1 196.8 81.2 196 80.6 195.9 80.3 196.8 79.4 197.1 78.9 197.3 78.9 197.8 77.4 196.8 77.1 194.1 75.7 194.7 74.1 193.5 73.4 193.7 73 192.8 72.4 191.5 71.8 191.5 71.3 192.6 69.1 192.6 67.9 191.3 66.8 191.1 66.3 190.7 66.1 190.7 65.6 188.6 65.1 188.4 64.8 188.6 64.6 183.4 58.2 181.3 47.8 178.8 47.4 178.7 47" fill="none" isolation="isolate" opacity=".8" stroke="#1d1d1b" stroke-linecap="round" stroke-linejoin="round" stroke-width="1.5"/>
    <polygon points="184.3 36.6 182.1 41.3 179.9 40.3 179.3 41.8 179.9 42.1 178.6 46 178.8 47.4 181.3 47.8 183.4 58.2 188.6 64.6 188.4 64.8 188.6 65.1 190.7 65.6 190.7 66.1 191.1 66.3 191.3 66.8 192.6 67.9 192.6 69.1 191.5 71.3 191.5 71.8 192.8 72.4 193.7 73 193.5 73.4 194.7 74.1 194.1 75.7 196.6 77 197.6 77.3 197.9 75.2 197.7 75.1 197.5 73.9 197.6 73.8 197.5 73.4 197.8 72.1 198.3 72.1 198.6 71.9 198.5 71.6 198.1 71.5 198.1 70.9 198.2 70.7 198.8 70.3 199.4 69.5 199.9 69.1 199.5 67.8 200.5 67.3 201.5 67 199.9 63.5 196.4 58.7 194.4 54.7 193.9 51.2 193.8 46.9 193.2 42.4 192.9 40.9 192.2 39.5 191.3 38 189.7 36.8 188.7 36.5 186.7 35.9 185.4 35.7 184.7 36.8 184.3 36.6" fill="none" isolation="isolate" opacity=".8" stroke="#1d1d1b" stroke-linecap="round" stroke-linejoin="round" stroke-width="1.5"/>
    <polygon points="128.5 70.6 127.3 70.2 125.4 70.1 125.1 71.7 124.4 71.7 124.1 72.2 123 72.3 121.9 72.2 113.8 75 109.9 76.2 108.2 81.3 108.6 81.3 107.5 83.9 108.1 85.7 112.2 88.4 113.5 87.5 116.3 89.3 115.5 91.2 115.5 91.7 114.9 92.8 114.1 93.5 114.9 93.7 114.9 94.2 116.1 94.2 116.2 94.8 116.4 94.9 116.3 95.6 117.6 95.9 117.2 96.7 117.3 97.4 118.2 98.3 118.4 99.3 118.3 100.7 118.9 101.4 120.4 102.5 120.4 102.9 122.2 102.5 122.9 101.5 123.8 101 126.2 100.7 129.6 99.5 129.8 99.6 131.9 99.3 133.6 99.4 135.2 98.9 135.8 98.5 134.4 97 136.1 95.2 137.5 94.3 139.1 93.9 140.8 94 141.8 93.9 144 94.5 144.6 94.3 146.8 93.8 147.2 93.8 147.3 94.1 147.5 94.2 147.4 94.8 148.5 94.8 148.7 94.7 148.7 94.1 150 94.2 150.3 94 151.3 93.8 151.6 93.5 151.9 93.4 152 92.6 151.3 91.9 151.7 91.7 153.1 91.6 154 91.8 154.6 91.7 155.2 91.8 155.4 91.7 155.6 91.2 155.9 91 157.2 91.2 158.9 90.3 159.3 90.8 159.8 91.1 160.2 90.7 160.1 89.8 161.3 89.4 160.5 85.8 160.1 81.4 160.2 78.3 160.8 75.9 156.6 74.3 155.9 74.2 153.6 73.5 152.9 77 151.7 76.6 151.4 77.4 151.3 78.6 150.7 78.8 139.5 77.8 138.6 78.1 136.2 76.5 134.4 74.9 132.3 73.8 132.2 74 131.5 74 131.1 74.6 129.8 74.5 129.5 72.9 129.4 70.7 128.5 70.6" fill="none" isolation="isolate" opacity=".8" stroke="#1d1d1b" stroke-linecap="round" stroke-linejoin="round" stroke-width="1.5"/>
    <polygon points="102.8 80.7 101 80.5 96.8 82.7 91 85.4 89.2 94.9 89.1 95.5 89.4 96.6 90.3 97.1 91.8 97 93 98 95.5 99 96.7 99.6 97.9 99.8 98.9 100.3 100.6 100.9 101.3 102 101.1 102.1 101.5 103.1 103.2 102.9 103.3 102.3 104.1 102.9 104.9 103.6 106 103.6 107.7 103 108.3 102.7 108.6 102.3 111.6 102.4 113.3 101.7 113.6 101.4 114.5 102 115.1 102.2 117.7 102.1 119.2 102.4 119.8 102.8 120.4 102.9 120.4 102.5 118.9 101.4 118.3 100.7 118.4 99.3 118.2 98.3 117.3 97.4 117.2 96.7 117.6 95.9 116.3 95.6 116.4 94.9 116.2 94.8 116.1 94.2 114.9 94.2 114.9 93.7 114.1 93.5 114.9 92.8 115.5 91.7 115.5 91.2 116.3 89.3 113.5 87.5 112.2 88.4 108.1 85.7 107.5 83.9 108.6 81.3 102.8 80.7" fill="none" isolation="isolate" opacity=".8" stroke="#1d1d1b" stroke-linecap="round" stroke-linejoin="round" stroke-width="1.5"/>
    <polygon points="168.4 84.8 168 84.7 168.1 84 166.3 83.9 166.1 85 165.4 85 164.9 84.6 160.3 85.1 160.8 87.6 161.3 89.4 163.1 94.2 164.3 96.4 165.2 98.6 166.6 104.4 166.8 106.3 168.8 106.2 169.3 106.3 169.6 106.5 172.3 107 173.8 106.7 174.6 106.9 175 105.7 175.1 103.9 174.7 102.7 175 101.3 175.9 101.6 176.7 101.5 177.6 101.2 178 101.3 179 98.7 179.7 98 180.6 96.5 180.9 93.5 180.4 93.4 180.4 91.3 181.3 88.5 180.4 88.2 179.6 89.2 177.8 87.6 176.3 87 176 87 175.8 87.4 175.6 87.4 175.2 87.1 175.3 86.9 174.8 86.7 174.7 86.2 173.6 85.8 173.6 85.9 172.8 85.7 172.2 85.7 172 86 168.4 84.8" fill="none" isolation="isolate" opacity=".8" stroke="#1d1d1b" stroke-linecap="round" stroke-linejoin="round" stroke-width="1.5"/>
    <polygon points="171.4 106.8 169.6 106.5 169.3 106.3 168.8 106.2 166.8 106.3 166.6 110.4 166.3 111.5 165 114.6 164.2 118.7 165.2 118.9 166.1 118.9 166.2 119.4 165.5 123.2 166.7 123.7 167.4 122.8 168 123 168.4 122.5 168.3 122.1 168.7 121.9 168.7 122.1 169 122.1 169.2 121.9 170 121.5 172 121.8 172.8 121.7 178.2 119.8 179.4 119.1 180 119 180.1 118.1 180.4 117.7 180.5 116.9 180.6 116.4 180.9 116.1 181.4 115.4 181.7 115.5 181.9 115.2 182.8 115.4 183.2 114.6 183.6 112.9 183.5 112.7 183.9 112.2 184.5 110.3 183.5 108.9 182.4 107.8 180.8 107.3 179.8 106.7 178.5 107.9 178.2 108.1 177.5 108.1 177 108.4 176.8 107.7 175.8 107.5 174.5 107.6 174.6 106.9 174 106.7 172.3 107 171.4 106.8" fill="none" isolation="isolate" opacity=".8" stroke="#1d1d1b" stroke-linecap="round" stroke-linejoin="round" stroke-width="1.5"/>
    <polygon points="138.4 10.9 135.1 10.9 134.3 11.8 137.7 17.3 140.1 22.3 142.3 26.1 143.2 27.3 145.3 29.5 147.3 31.3 151.9 34.4 157 38.5 157.9 41.2 157.2 41.8 160.4 45.3 163.6 48 167.2 47 168.2 46.2 169.3 45.7 171.7 45.1 174 44.3 174.5 45.6 178.7 46 179.9 42.1 179.3 41.8 179.9 40.3 182.1 41.3 184.3 36.6 181.9 34.7 179.5 34 177.8 33.3 175.1 31.8 173.2 30.3 171.3 27.9 167.3 23.7 163.3 21 161.7 20.2 158.1 17.1 153.3 15.6 150 15.8 149.4 17.9 144.4 15.9 138.4 10.9" fill="none" isolation="isolate" opacity=".8" stroke="#1d1d1b" stroke-linecap="round" stroke-linejoin="round" stroke-width="1.5"/>
    <polygon points="164.5 54.3 164.9 55.8 164.7 63.6 164.1 66.4 162.5 71.7 160.9 75.6 160.4 77.4 160.1 79.9 160.3 85.1 164.9 84.6 165.4 85 166.1 85 166.9 81.8 167.3 81 168.1 81.2 168.2 80.7 168.4 79.9 167.9 79.7 168.6 76.9 170.1 77.3 170 76.7 170.2 75.7 171.7 76.9 172 76.6 172 76.3 172.4 75.4 171.5 74.8 169.4 73.9 170.1 72.4 170.8 68.1 171.7 68.1 171.9 68 171.8 67.7 172.3 66.7 173.1 66.5 173.1 66.3 173.9 66.4 174.2 65.5 174.1 63.4 173.6 63.3 173.5 62.5 173 61 174.4 60.3 174 54.6 174.3 53.6 174 52.2 173.8 47.2 175 47.5 174.5 45.6 174 44.3 171.7 45.1 169.3 45.7 168.2 46.2 167.2 47 163.6 48 163.4 49.3 164.5 54.3" fill="none" isolation="isolate" opacity=".8" stroke="#1d1d1b" stroke-linecap="round" stroke-linejoin="round" stroke-width="1.5"/>
    <polygon points="182.8 157.3 183.2 157.1 184.2 155.8 184.5 154.2 184.3 153.5 184.8 153.2 184.8 152.7 186.8 151.4 190 149.9 190.3 149.6 190.2 149.4 190.3 149.1 191.4 147.6 191.6 147.4 193.6 146.8 193.9 146.1 192.6 144.7 188.2 144.4 187.9 143.5 187.7 143.3 186.9 142.9 184.4 142 183.5 142 182.7 142.3 181.4 142.1 180.6 143.2 179.1 143.9 178.1 144.7 178 145.1 177.3 146.2 176.5 147 176.1 147.6 174.6 147.9 173.7 148.7 172.6 149.2 172.1 148.9 171.7 148.9 171 149.5 167.9 150.7 169.2 153 170.5 156.9 171.7 156.8 173.2 159.2 174.8 158.5 176.6 158.4 178.3 158.6 179 158.2 181.2 157.9 181.5 157.6 182.8 157.3" fill="none" isolation="isolate" opacity=".8" stroke="#1d1d1b" stroke-linecap="round" stroke-linejoin="round" stroke-width="1.5"/>
    <polygon points="180.7 131.4 179.8 131.5 177.1 132 175.8 131.9 174.6 132.1 174 131.9 172 132.8 170.9 133.5 170.8 133.7 170.4 133.9 169.2 133.9 165 134.9 163.8 134.8 162.4 137 162 137.3 161.1 138.7 167.6 143.7 166.2 144.8 167.1 145.8 165.8 146.7 166.8 148.1 167.9 150.7 171 149.5 171.7 148.9 172.1 148.9 172.6 149.2 173.7 148.7 174.6 147.9 176.1 147.6 176.5 147 177.3 146.2 178 145.1 178.1 144.7 179.1 143.9 180.6 143.2 181 142.8 181.4 142.1 181.3 142.1 181.9 140.4 182 140.4 182.5 140.1 183.3 139.9 184.1 139.5 184.2 138.9 184.1 138.6 183.1 138.4 183.2 138 182.9 137.9 183.1 135.9 183.4 135.8 183.7 135.3 182.4 134.7 181.4 134.5 181.2 133.4 180.7 131.4" fill="none" isolation="isolate" opacity=".8" stroke="#1d1d1b" stroke-linecap="round" stroke-linejoin="round" stroke-width="1.5"/>
    <polygon points="71.8 58.8 58 71.7 54.4 71.9 53.3 83.9 53.2 84 52.8 88.2 67.2 90 73.6 93.1 76.5 95.9 76.9 96.1 79.6 96.5 80.1 96.4 83.1 97.8 88.4 98.4 89.8 98.4 89.3 96.4 89.2 94.9 89.8 92.2 91 85.4 96.7 82.7 96 81.1 93.3 76.7 84.3 65 82.9 64.4 79.3 62.5 71.8 58.8" fill="none" isolation="isolate" opacity=".8" stroke="#1d1d1b" stroke-linecap="round" stroke-linejoin="round" stroke-width="1.5"/>
    <polygon points="70.5 120.5 70.2 119.7 66.7 120.9 63.7 121.4 44.9 123.6 40.8 125.4 36.1 126.8 28.7 131.1 28.4 131.4 36.4 135.7 36.7 143.1 50.9 146.5 57 144.3 61.7 142.9 68.4 141.2 69.2 140.9 72.1 140.8 72.1 135.9 72.3 135.8 72 135.5 72.1 134.9 71.6 134.5 71.6 134.1 71.3 133.9 71.2 133.7 71.3 133.2 70.7 132.7 70.8 132.2 71.9 132.2 72.4 130.7 75.4 129.9 73.1 125.9 71.4 122.2 70.5 120.5" fill="none" isolation="isolate" opacity=".8" stroke="#1d1d1b" stroke-linecap="round" stroke-linejoin="round" stroke-width="1.5"/>
    <polygon points="49.4 87 42.7 84.6 38.1 84.3 37.7 85.7 37.6 85.9 37.2 88.3 36.4 91.4 36.1 91.9 33.7 102.3 23.5 109.2 15.8 108.3 17 125.5 20.3 129.1 28.4 131.4 28.7 131.1 36.1 126.8 40.8 125.4 44.9 123.6 63.7 121.4 66.7 120.9 70.2 119.7 73.1 125.9 75.4 129.9 87.1 131.9 87.6 128.1 90.9 126.9 92.4 123.9 98 119.8 97.9 118.7 98.4 118.7 99 117.9 99.2 117 99.4 116.8 98.9 116.1 99.6 115.5 99.7 115.1 100.2 114.6 100.5 113.3 101.1 113.4 101.1 113.2 101.1 112.6 101.4 111.8 101.3 111.3 100.7 110.6 100.8 110.4 101.6 109.2 102.3 108.7 101.3 107.4 101 107.2 101.6 106.3 101.7 105.5 101.8 105.2 101.8 104.9 102.5 104.6 102.4 104 102.6 103.6 103.1 103.7 103.9 102.7 103.3 102.3 103.2 102.9 101.5 103.1 101.1 102.1 101.3 102 100.6 100.9 98.9 100.3 97.9 99.8 96.7 99.6 95.5 99 93 98 91.8 97 90.3 97.1 89.4 96.6 89.8 98.4 88.4 98.4 83.1 97.8 80.1 96.4 79.6 96.5 78.2 96.2 77.8 96.3 76.5 95.9 73.6 93.1 67.3 90 52.8 88.2 49.4 87" fill="none" isolation="isolate" opacity=".8" stroke="#1d1d1b" stroke-linecap="round" stroke-linejoin="round" stroke-width="1.5"/>
    <polygon points="137.4 166.5 136.5 166.5 136.5 164.9 133.3 164.3 132.3 165.2 131.6 165.6 129.8 167.3 129.3 167.6 127.8 168.9 125.1 170.6 124.3 170.9 119.2 173.9 119.1 174.4 118.3 175.1 119 177.3 119.2 177.7 120 181.3 120.6 182.6 120 184.6 121.1 185.4 121.7 185 122.6 184.2 122.8 184.7 122.7 185 123.2 186.6 123.4 186.5 123.5 188.1 125 188 125.5 188.3 125.4 189.8 125 190.5 124 191.1 124.2 192.7 123.9 194.1 124.4 194.8 124.5 195.9 126.1 195.6 125.8 193.9 127.3 192.8 130.5 192.3 130.6 192 131.5 191.8 131.7 192 132.2 191.4 133.3 189.3 134.6 187.4 135.2 186 136.8 186.5 138.2 186.5 139.6 185 140 183.6 140.7 183.7 140.7 183.9 142.1 183.6 142.4 183 143.1 183.4 142.9 182.7 142.8 181.3 143.1 180.3 143.1 179.4 143.2 179.1 144.4 178.7 144.3 175.9 144.6 174.9 144.4 174.7 145.1 173.4 144.2 174.1 143.9 174.1 144 173.9 143.5 173.7 143.6 173.6 143 172.9 142.7 172 143.4 171.7 143.3 171 141.7 171.3 141.8 170.5 142.2 169.6 142.3 168.6 141.6 168.6 140.7 168.7 140.3 168.6 139.5 168.1 138.2 166.8 137.8 166.2 137.7 166.5 137.4 166.5" fill="none" isolation="isolate" opacity=".8" stroke="#1d1d1b" stroke-linecap="round" stroke-linejoin="round" stroke-width="1.5"/>
    <polygon points="151.5 160 150.6 157.3 150.2 157.9 149.9 158.7 148.9 160.6 148.6 161.4 147.1 163.6 146.8 163.6 146.7 164.1 145.5 165.7 145.4 166.4 144.5 167.1 144.2 168.3 142.3 168.6 142.2 169.6 141.8 170.5 141.7 171.1 141.8 171.3 143.3 171 143.4 171.7 142.7 172 143 172.9 143.6 173.6 143.5 173.7 144 173.9 143.9 174.1 144.2 174.1 145.1 173.4 144.4 174.7 144.6 174.9 144.3 175.9 144.4 178.7 143.2 179.1 142.8 181.3 142.9 182.7 144.2 188.6 144.9 189.2 146.3 189.4 146.7 189.5 147.2 190.8 147.6 190.7 147.7 190.9 147.9 190.8 148 190.6 148.6 191.7 149.1 191.9 149.1 192.1 148.8 192.1 148.6 192.8 149 192.7 149.2 192.8 151.1 195.2 151.5 195.2 152.9 195.7 153.4 195.6 153.7 196.2 155 196 154 191.6 153.4 190.3 153.4 189.6 153.6 189.3 155.8 189.1 156.8 188.6 157.5 188.4 157 187 157.8 186.6 158.6 185.8 158.7 186 159.7 185.7 161 185.8 161.1 185.4 162.2 185 162.7 184.6 164.9 184.1 165.2 183.8 165.4 183.3 165.6 183.3 165.9 183.1 166 182.3 166.3 181.8 166.5 181.7 166.7 181.4 166.6 181.1 166.9 180.9 166.8 180.3 167.1 179.8 167.7 180.2 169.2 180.1 169.3 180.4 170.3 180.6 170.9 180.4 171 180.1 171.5 179.9 171.8 179 172.7 179.4 174.3 179.1 174.5 178.8 175 178.6 175.4 179 176 179.3 177.1 179.4 177.1 177.1 176.4 175.2 176 174.3 175.5 173.8 174.9 172.5 173.9 169.4 173.7 167.3 172.1 165.7 170.1 166.3 168.6 166 168.6 166.6 167.9 166.6 167.6 167.2 166.7 167 166.3 168.8 161.9 167.1 159.6 168.2 159.7 168.4 159.1 168.8 158.8 168.6 158.6 169.3 158 169.5 157.9 169.3 156.8 169.6 157 170.5 155.5 170.9 153.4 170.7 153.1 166.2 152.6 163 151.5 160" fill="none" isolation="isolate" opacity=".8" stroke="#1d1d1b" stroke-linecap="round" stroke-linejoin="round" stroke-width="1.5"/>
    <path d="M159.7,168.1l2.2-1,4.4,1.7.4-1.8.9.2.3-.6h.7v-.6l1.5.3,2-.6-1-3-.8-4.1v-.8c0,0,.2-.9.2-.9l-.3-.9-.9-2.5-1.4-2.8-1.1-2.6-1-1.4-1.7,1.2-3,2.3-3.1,2.3h0l-.8.5h-.9l-2.1-.4h0c0,.1-.4.4-.4.4h-.3c0-.1-.5,0-.5,0h0c0,0-1.7.7-1.7.7l-1,.2h-.2c0,0,.1,1.4.1,1.4l.5,1.9.6,1.8.7,1.9.6,1.7.6,3.4.3,4.6,2.1.2.8-.2.7-.2-.2-.9,1.1-.3v.2c0,0,.3-.1.3-.1h.4c0,0,.2-.8.2-.8l.3.2.6-.4v-.3Z" fill="none" isolation="isolate" opacity=".8" stroke="#1d1d1b" stroke-linecap="round" stroke-linejoin="round" stroke-width="1.5"/>
    <path d="M150.1,155.4v-1.2c-.1,0,0-1.3,0-1.3h0l-.4-1.5-.4-1-1.3-1.1-3.2-2.9-1.4-1.2-1.7,1.3-.4.8-.8.9-1.3.8h-.9c0,0-.8.4-.8.4l-.8.6-1.5.8-1.2,1,1.7,1.9v.4c0,0,.4,0,.4,0l.3,2-.3,4.6-.6,1,1.7,1.6-.6,1.1v2.2c-.1,0,1.1,0,1.1,0v-.3c0,0,.5.6.5.6l1.3,1.3,1.1.6,2.2-.2,1.4-.2.2-.5v-.7c0,0,1-.7,1-.7v-.5c0,0,1.1-1.4,1.1-1.4l.3-.5v-.4h.3l1.5-2.2.3-.8,1-1.9.3-.8.4-.6-.5-1.9Z" fill="none" isolation="isolate" opacity=".8" stroke="#1d1d1b" stroke-linecap="round" stroke-linejoin="round" stroke-width="1.5"/>
    <path d="M136.1,160.6l.3-4.6-.3-2h-.5c0,0,0-.3,0-.3l-1-1-.7-.9,1.2-1,1.5-.8.8-.6-.4-1-.5.2-.7-1.3-.8.3-.4-.6h-.4c0,0,0-.2,0-.2l-.5.7-.8.7v.2c0,0-1.6.7-1.6.7l-.5.7h-.5c0,0-.6,0-.6,0l-.8.5h-.1c0,0-.3.8-.3.8l-.4.2h-.5l-.5.5-1.2.2v-.2c-.1,0-.8-.4-.8-.4l-1.4.5-.2.3v.6h0c0,0,0,.2,0,.2l-.2-.2v-.9c0,0-2.3,0-2.3,0l-.9.5h-.4l-.3-.3h-2.6c0,0-.5.2-.5.2h-.5l-1,.7-.7.3-1.2.3v.4c.1,0-.3,0-.3,0l-1.4.4h-.1c0-.1-.7-2.1-.7-2.1l-3.1.4h-1.3c0,0-1.9,0-1.9,0l-1.5.9-1.6.6-2.7,2-3.7,2.8-1.3,1.3-.8-.6-1,.3-2,.6-3.6-1.4h-.7v.2c-.1,0-2.7.1-2.7.1l-1.9,3.1-1.1,3.1.6.3-1.8,4.9,2,.8-1.6,1.1,1.9,2.6-8.8,10-2.1,2.3,3.7,3.6,7.8-6.1,6.8-6.5,1.4-1.2,2.5-1.4,3.5-1.9,4.6-3,.9.5,1,1,.9.5,1.6,1.3.7.4,3.3-1,.2.2h.6c0,0,.7.6.7.6l1.4-.9h.7l1,.2,1.6.7,1.8-.5v-.2l2.3-.4h.3c0,0,5.1-2.9,5.1-2.9l.8-.3,2.7-1.7,1.5-1.3.7-.5,1.6-1.5,1.2-.7.5-.6,3.2.6.3-1,.4-.7-1.7-1.6.6-1Z" fill="none" isolation="isolate" opacity=".8" stroke="#1d1d1b" stroke-linecap="round" stroke-linejoin="round" stroke-width="1.5"/>
    <path d="M134.2,146.8h-.6c0,0-.5,0-.5,0v-.3h-.9v-1.4h.5l.2-.7h.4c0-.1,0-.8,0-.8l-.4-.8v-1.5c.1,0,.5-.6.5-.6l-3.1-.9-1.8-.3-1.1-.5h-.3s0-1,0-1h.3c0,.1,0-1.1,0-1.1h-.4c0-.1-.4-.9-.4-.9l-.3-.2-.3-1.9h-.5c0-.1-.4-.2-.4-.2l.4-.9-.7-.4h-.7c0-.1.3-.5.3-.5v-.6c0,0-.3-.2-.3-.2l.6-1.9-2.1-.4v-1.1h.3c0,0,0-.7,0-.7l-.3-.2h-.2c0,.1.2-.5.2-.5l-.5-.2h-.1s.3-.1.3-.1l-.4-.2.6-1-.7-.4.2-.4h-.2c0,0,.2-.5.2-.5l-2-.4-1.4-.7h-3c0-.1,0,.5,0,.5l-1.8,1-1.2,1.6-.9-.2-2-.3-3.4-.4-1,.4-.9.4h-.3c0-.1-17.1,6.4-17.1,6.4l-11.7-2-3,.8-.5,1.5h-1.1v.5c0,0,.5.5.5.5v.5c0,0,0,.2,0,.2l.3.2v.4l.5.4v.6c0,0,.2.3.2.3h-.2v5l6.7,1.8,1.6,1.6.5.9,1.6,3.4,1.6,3.9-.2,2.4-.5,2.3-.5,1,.2.2-.4,1.4h2.6c0-.1.1-.3.1-.3h.7l3.6,1.4,3-.9.8.6,1.3-1.3,6.4-4.8,1.6-.6,1.5-.9,1.9-.2h1.2l3.2-.3.7,2h.1c0,.1,1.4-.3,1.4-.3h.4c0,0-.1-.5-.1-.5l1.9-.6,1-.7h.5l.5-.3h2.6c0,0,.3.4.3.4h.4l.9-.5h2.2c0,0,0,.2,0,.2h0l.2-.3.8-.2.3-.3h.3l.3.2.4.2v.2c.1,0,1.3-.2,1.3-.2l.5-.5h.5l.4-.2h.1c0-.1.2-.7.2-.7l.5-.3.2-.2h.2c0,0,.6,0,.6,0h.5c0,0,.5-.8.5-.8l1.7-.7v-.2c0,0,.7-.7.7-.7l.5-.7Z" fill="none" isolation="isolate" opacity=".8" stroke="#1d1d1b" stroke-linecap="round" stroke-linejoin="round" stroke-width="1.5"/>
    <polygon points="140.7 94 139 93.9 137.4 94.4 136.1 95.2 134.4 97 135.8 98.5 135.2 98.9 133.6 99.4 131.9 99.3 129.8 99.6 129.6 99.5 125.9 100.8 127 104 127.2 105.2 127.3 106.1 128 106.4 127.3 108 127.4 108.1 127.1 108.5 127 108.5 126.4 109.5 126.5 109.5 126.4 109.9 126.3 109.9 126.5 110.1 126 110.8 127.1 112.1 128.2 112.9 132.8 117.3 136.5 116.5 137.3 116 137.4 115.8 138 115.5 138.3 115.2 138.7 115.6 139.3 115.9 139.4 116 140.4 115.9 141.5 116 141.2 116.6 140.8 117.1 141.6 117.6 141.7 117.5 142.9 117.9 144.1 117.8 144.8 118.2 145.7 118.4 146.2 118.3 149.1 118.4 147.3 93.9 146.6 93.8 143.9 94.5 142 93.9 140.7 94" fill="none" isolation="isolate" opacity=".8" stroke="#1d1d1b" stroke-linecap="round" stroke-linejoin="round" stroke-width="1.5"/>
    <polygon points="125.9 100.8 123.7 101.1 122.9 101.5 122.2 102.5 120.4 102.9 119.8 102.8 119.2 102.4 117.7 102.1 115.1 102.2 114.3 101.9 113.7 101.4 113.3 101.7 111.6 102.4 108.8 102.3 108.8 103.4 109.1 104.2 109.1 104.9 109.4 106.7 108.7 108.5 108.8 110.1 108.5 110.8 108.5 112.6 109.1 113.1 109.1 114.8 109.6 115.9 110.4 116.7 112.2 117.1 111.4 118.8 110.8 121 110.2 122.1 109.9 125.1 112.7 125.6 113.9 124 115.7 123 115.8 122.4 118.8 122.5 120.2 123.2 122.9 123.7 123.7 122.6 124.3 122.9 125.1 121.7 125.2 121.5 124.9 121.1 123.9 120.8 124.5 120 125.5 116.4 125.6 115.7 127.4 115 129.2 113.8 127.1 112.1 126 110.8 126.5 110.1 126.3 109.9 126.4 109.9 126.5 109.5 126.4 109.5 127 108.5 127.1 108.5 127.4 108.1 127.3 108 128 106.4 127.3 106.1 127.2 105.2 127 104 125.9 100.8" fill="none" isolation="isolate" opacity=".8" stroke="#1d1d1b" stroke-linecap="round" stroke-linejoin="round" stroke-width="1.5"/>
    <polygon points="108.8 103.5 108.8 102.3 107.7 103 106.1 103.6 104.9 103.6 103.9 102.7 103.1 103.7 102.6 103.6 102.4 104 102.5 104.6 101.8 104.9 101.8 105.2 101.7 105.5 101.6 106.3 101 107.2 101.3 107.4 102.3 108.7 101.6 109.2 100.8 110.4 100.7 110.6 101.3 111.3 101.4 111.8 101.1 112.6 101.1 113.2 101.1 113.4 100.5 113.3 100.2 114.6 99.7 115.1 99.6 115.5 98.9 116.1 99.4 116.8 99.2 117 99 117.9 98.4 118.7 97.9 118.7 98 119.8 92.4 123.9 90.9 126.9 87.6 128.1 87.1 131.9 104.2 125.4 104.5 125.5 105.1 125.3 106 124.8 110 125 110.2 122.1 110.8 121 111.4 118.8 112.2 117.1 110.4 116.7 109.6 115.9 109.1 114.8 109.1 113.1 108.5 112.6 108.5 110.8 108.8 110.1 108.7 108.5 109.4 106.7 109.1 104.9 109.1 104.2 108.8 103.5" fill="none" isolation="isolate" opacity=".8" stroke="#1d1d1b" stroke-linecap="round" stroke-linejoin="round" stroke-width="1.5"/>
    <path d="M122.3,126.2l.5.2-.2.6h.2c0-.1.3,0,.3,0v.8c0,0-.4,0-.4,0v1.1l2.2.4-.7,1.9.4.2v.6c0,0-.4.4-.4.4h.7c0,.1.7.5.7.5l-.4.9.9.2.3,1.9.3.2.4.8h.4c0,.1,0,1.3,0,1.3h-.3c0-.1,0,1,0,1h.2c0-.1,1.2.4,1.2.4l1.8.3,3.1.9h0c0,0-.3.6-.3.6v1.5c-.1,0,.3.8.3.8v.7c0,0-.3.1-.3.1l-.2.7h-.4v1.4c0,0,.8,0,.8,0v.3l.5-.2h.6c0,0,0,.4,0,.4h.4c0,0,.4.5.4.5l.8-.3.7,1.3.5-.2.4,1,.8-.3h.9c0,0,1.4-1,1.4-1l.7-.8h0l.4-.8,1.7-1.3,1.4,1.2,1.4,1.2,3.1,2.8.4,1,.5,1.5-.2,1.2.4-.2h.8c0,0,1.7-.9,1.7-.9h0c0,0,.5-.1.5-.1h.3c0,.1.4-.2.4-.2h0c0-.1,2.1.3,2.1.3h.9l.8-.5,3.1-2.3,3-2.3,1.7-1.2,1.3-.9-.9-1,1.4-1.1-6.5-5,.9-1.4.4-.3.8-1.1.4-.9,1.7-2.3.4-.9v-1.6l-.6-2.9v-2.2h0l1-5.7-.2-.5h-.8l-1-.2.8-4.1,1.3-3,.4-2.2v-3c0,0,0-2,0-2l-.4-1.2-1-4.6-.9-2.2-1.2-2.2-1.8-4.8-1.2.4v.9c0,0-.3.4-.3.4l-.5-.3-.4-.5-1.7.9-1.3-.2-.3.2-.2.5h-.2c0,0-.6,0-.6,0h-.6c0,0-.9-.1-.9-.1h-1.4c0,.1-.4.3-.4.3l.7.7v.7c0,0-.7.5-.7.5l-1.5.4h-.3c0-.1-.8-.1-.8-.1v.6h-.3c0,0-1,0-1,0v-.6c0,0-.1-.1-.1-.1l1.4,19.4.6,6.9h0l-3.4,1.9-1.8,1.1-.8,1.1-1.7,3.3-.3.4-1.9-.6-1.2-1-1.2-1.1-1.7-1.3-1.9-.5-.7-.2-1.9-1.4-.9-.6-.9-1.1-3.6-3.5-.9,3.1-.6.8.9.3.4.4-.9,1.4-.6-.3-.8,1.1h-.7c0-.1-.2.3-.2.3h.2c0,0-.2.5-.2.5l.7.4-.6,1,.4.2h-.2ZM162.6,135.1l.7-.3h0s-.7.3-.7.3Z" fill="none" isolation="isolate" opacity=".8" stroke="#1d1d1b" stroke-linecap="round" stroke-linejoin="round" stroke-width="1.5"/>
    <path d="M149.1,118.4h-2.4c0,0-1.2,0-1.2,0l-1.4-.6h-1.2c0,0-1.2-.3-1.2-.3h0c0,0-.8-.4-.8-.4l.4-.5.3-.6h-1.1c0-.1-1,0-1,0h-.1c0-.1-.6-.4-.6-.4l-.4-.4-.3.3-.6.3v.2c-.1,0-.9.5-.9.5l-3.7.8.2.2-3.8-3.7-1.8,1.2-1.8.7-.2,1.2,3.6,3.5.9,1.1.9.6,1.9,1.3.5.2h.2c0,.1,1.6.5,1.6.5l1.5,1.1,1.7,1.4,1.2,1,2,.6.4-.7,1.8-3.6.6-.7h0l5.1-2.8-.2-2Z" fill="none" isolation="isolate" opacity=".8" stroke="#1d1d1b" stroke-linecap="round" stroke-linejoin="round" stroke-width="1.5"/>
    <path d="M180.1,129.6l-.4-1.8v-1.3h0l.5-4.6v-1.9l-.3-1h-.6c0,0-1.2.8-1.2.8l-4.7,1.7-1.3.3-2.2-.3-.8.4-.2.2h-.3v-.2l-.4.2v.4c.1,0-.3.5-.3.5l-.6-.2-.7.9-1.2-.5-.4,2.7v1.4l.6,2.9v1.6l-.4.9-1.5,2.1h1.2c0,0,3.8-.8,3.8-.8h.6c0-.1,1.2-.1,1.2-.1l.9-.8,2.4-1.2.7.2h1.5c0,0,1.6-.2,1.6-.2l3-.5-.6-1.8Z" fill="none" isolation="isolate" opacity=".8" stroke="#1d1d1b" stroke-linecap="round" stroke-linejoin="round" stroke-width="1.5"/>
  </g>
  <g id="Calque_3" data-name="Calque 3">
    <path d="M218.1,70.1l-1.4.8-4.8,4-1.6,1.1-1.1.6h-1.3s-.9-.5-.9-.5l-1-1.2-.6-3.1-2-6.2-1.2-2.6-1.3-2.2-3-4.2-1.2-2.2-.5-1.6-.2-2.6.4-2.7v-4.6s-.9-3.3-.9-3.3l-1-1.9-1.2-1.5-1.6-1.6-2.7-1.6-1.4-.5-6.1-1.1-3.4-1.3-1.5-1.4-1.8-2.4-2.4-2.3-1.5-2-1.5-1.5-1.6-.9-.5-.6-1.8-1.3-2-1.2-2-1-4-1.3h-.3c0,0,0,0,0,0v-.2s-.1.2-.1.2h0c0,.1-.5,0-.5,0l-1.6-.4h-.2c0,0-1.3-.5-1.3-.5l-4.4-.6-3.7-.4-1.5-.3-1.5-.7-5.4-4.1-.9-.8-4.6,7.4.2.6.5.5,1.2,1.2,2.3,3.2.5.9h0c0,.1.4.9.4.9l.8,1.6.6,1.1,3.1,4.9,1.5,2,.8,2.6,2.2,1.2,3.8,1.6.7.5,2,1.8h.4c0,.1,1.6,2,1.6,2l.5.3,2.6,3,1.8,1.9,2,2.9.4,1.3v.2c.1,0,.7,1.8.7,1.8l.4,2.4v.5s.4,3,.4,3v.2l.2,3.2v1.5c-.1,0-.2.5-.2.5l-.3.4-.6,2.5-.8,2.1-1.2,3.2v.2s-.4,1.2-.4,1.2l-.8,2.6-.3,1.2h0s-.3,3-.3,3v1.6c0,0,.6,2.3.6,2.3l1.6,6.3v.2c.1,0,1.6,4.5,1.6,4.5h0c0,.1.5,1.1.5,1.1l1.4,4.4.3,1.5v.4c.1,0,.7,1.8.7,1.8l.7,1.8-.2,5.1-.4,2.1-1,2.6-.6,1.6-.3,2.1h-.2.3c0,0-.2,1.4-.2,1.4l-.9,2-.3.3h-.1c0-.1-.5.6-.5.6l-.6.3-.6-.6.2.2h-.2s.2.3.2.3l-.2.6-3.5,2.3-1.3.9-1.6,1.7-.3.3-.5.6-.6,1.3-.2,1.8.3,1.7,1.1,3,1.6,1.7,1.7,1.5,2.4,1.8h.2c0,.1,0,.2,0,.2h0s1.7,1.4,1.7,1.4h0l3.1,3,.3.3.3.3,1,1.6,2.7,6.2.9,2.8.6,3.2v1.3c.1,0,.7,2.7.7,2.7l-.3.2h.4c0,.1.3,1.2.3,1.2l.5,1,3.5,7.2.4.5.9,1.5.2.4-.3,3.2.4,3.4v4.1c0,0,.1,2.1.1,2.1l-.2,2.4v1.3c.1,0,.6,1.4.6,1.4l.7,1.2,1.4,1.3,2,1.1,3.2.6,3.4,1.2,4.9,1.8,2.7,1.6h.1c0,.1,4.1,2.4,4.1,2.4l2.3.9,1.6,1.5,2.1,3.9.4,1.5h1.7l-1.5-4.8-.4-.7-.2-.3-.2-.3-1.1-1.3-1-.6-.4-.2-.9-.3h-.3c0,0-2.3-.9-2.3-.9l-.4-.3h-.1c0-.1-.8-.8-.8-.8h-.3l-2.2-1.9-1.5-.9-2-.8-1-.3-1.5-.4-2.4-1-3.2-1.8-2-3.1v-.4c0,0-.9-1.2-.9-1.2l-1.8-1.8-1.3-2.3-.3-.9v-1.5l.4-2.9.4-.3h-.4c0,.1.4-2.8.4-2.8l-.4-2.4-1.3-2.3v-.4s-.3-.1-.3-.1l-.7-1.7-.9-3.5-.2-1,.3-.2h-.3c0,0,0-1,0-1h.2-.2c0-.1.2-1.7.2-1.7l-.3-2.8-.5-1.7-.9-2-1.8-2.9-.5-1.7-3.7-7.5-1.7-2.1-.8-.6h0l-2.8-2.2-1.2-.6-.5-.3-.4-.2-.4-.4-.4-.2-1.1-.9-1.5-1.4-.9-1.2-.7-.8-.6-.7-.3-.6-.3-.7-.2-.8v-1.1c0,0,.8-1.7.8-1.7l.4-.4,1-.8.4-.3h.1c0,0,0,0,0,0l.5-.5,4.5-2.7,2.1-1.8v-.4c.1,0,.9-.8.9-.8h-.2c0-.1.7-1.4.7-1.4l.7-2v-.2l.3-2.9,1.5-3.2.4-1.4.3-1.4v-4.1l-1-5v-1.2h-.2s-.4-1.8-.4-1.8l-.4-1-3.3-7.8v-.3s-.5-3.3-.5-3.3v-.9s0-.1,0-.1l-.2-2.9.2-3,1.3-4.6.6-1.2v-.2c0,0,1.9-4.7,1.9-4.7l.7-2.6.5-3.5v-.9c0,0-.1-7.1-.1-7.1l-1.5-7.2-1.6-3.2-1.3-2-2.5-3-5.1-4.8h-.1c0,0-7.6-5.8-7.6-5.8l-4-3.5-.3-.8h0c0-.1-1.6-3.7-1.6-3.7l-1.9-3.6-3.6-4.7h.2c0-.1.5,0,.5,0l4.8,3.8,2.2,1.3.5.6,2.6,1.2,4.8,1.6,6.1,1.3,4,1.1,2.2.8,2,1.2,4.3,4.7,1.6,1.7,2.1,1.8,4.2,2.7,3.8,1.2,7.2.7,1.4.9.7,1.8.4,2.1,1.2,9.6,1.1,3.2,1.8,3.3,3.3,4.9,1.9,3.6,1.8,6.2,1.5,2.8,2.3,2.1,1.5.4,1.2.3h1c0,0,2.1-.7,2.1-.7l2.7-1.2,1.8-.9,1-.9,1.4-1.4h.2v-4l-1,.4ZM177.8,190.8l.8.8,2.2,1.4.6.6.2.9v.8c0,0,.5,1.8.5,1.8h-.8c0,.1-1.3-.1-1.3-.1l-1.3-1.1-.7-.9-.5-1.4.3-2.9ZM171.4,157.7v-.3s.2.2.2.2l.5.4h0c0,0,1.2,1.8,1.2,1.8l.7,1.7v.3c0,0,0,0,0,0l.3,1.3v.4l.2.4v1.4s-.1.8-.1.8v.3c0,0-.3.2-.3.2h0c0,0-1.1-2.4-1.1-2.4l-.3-2-.6-2.1-.6-2.2v-.2ZM157,18.6l-.3-.2h-.3c0,0,.4.3.4.3h-.7c0,.1-3.5-.3-3.5-.3l-1-.3-.9-.9,2.4-.2,1.4.3.2.2h.3c0,0,1.5.4,1.5.4l.7.5h-.3Z" fill="#bcdbf4" stroke-width="0"/>
  </g>
  <g id="Calque_2" data-name="Calque 2">
    <text transform="translate(204 12.2)" fill="#000" font-family="RobotoCondensed-LightItalic, &apos;Roboto Condensed&apos;" font-size="10" font-style="italic" font-weight="300"><tspan x="0" y="0">Bordeaux</tspan><tspan x="0" y="12">Métropole</tspan></text>
    <g>
      <path d="M182,29.3c0,0,0-.2,0-.2" fill="none" stroke="#1d1d1b" stroke-miterlimit="10" stroke-width=".5"/>
      <path d="M182,28.1c1-9.7,8.8-17.3,18.5-18" fill="none" stroke="#1d1d1b" stroke-dasharray="0 0 .5 1" stroke-miterlimit="10" stroke-width=".5"/>
      <path d="M201,10.1c0,0,.2,0,.2,0" fill="none" stroke="#1d1d1b" stroke-miterlimit="10" stroke-width=".5"/>
      <polygon points="198.9 12.1 200.9 10.1 198.9 8.1 200.6 8 202.7 10 200.7 12.1 198.9 12.1" fill="#1d1d1b" stroke-width="0"/>
    </g>
  </g>
</svg>